<mxfile host="drawio-plugin" modified="2025-05-10T18:09:42.699Z" agent="5.0 (Macintosh; Intel Mac OS X 10_15_7) AppleWebKit/537.36 (KHTML, like Gecko) Chrome/104.0.5112.102 Safari/537.36" etag="llHNepMBIoh4JNEHBeFa" version="20.5.3" type="embed"><diagram id="architecture" name="Architecture"><mxGraphModel dx="941" dy="371" grid="1" gridSize="10" guides="1" tooltips="1" connect="1" arrows="1" fold="1" page="1" pageScale="1" pageWidth="827" pageHeight="1169" math="0" shadow="0"><root><mxCell id="0"/><mxCell id="1" parent="0"/><mxCell id="client" value="Client" style="rounded=1;whiteSpace=wrap;html=1;fillColor=#dae8fc;strokeColor=#6c8ebf;fontColor=#000000;" parent="1" vertex="1"><mxGeometry x="70" y="190" width="120" height="60" as="geometry"/></mxCell><mxCell id="gateway" value="API Gateway" style="rounded=1;whiteSpace=wrap;html=1;fillColor=#d5e8d4;strokeColor=#82b366;fontColor=#000000;" parent="1" vertex="1"><mxGeometry x="270" y="190" width="120" height="60" as="geometry"/></mxCell><mxCell id="3" style="edgeStyle=orthogonalEdgeStyle;rounded=0;orthogonalLoop=1;jettySize=auto;html=1;fontSize=10;fontColor=#000000;" parent="1" source="userService" target="2" edge="1"><mxGeometry relative="1" as="geometry"/></mxCell><mxCell id="8" style="edgeStyle=orthogonalEdgeStyle;rounded=0;orthogonalLoop=1;jettySize=auto;html=1;entryX=0.5;entryY=1;entryDx=0;entryDy=0;" edge="1" parent="1" source="userService" target="5"><mxGeometry relative="1" as="geometry"/></mxCell><mxCell id="9" value="&lt;span style=&quot;color: rgb(216, 222, 233); font-family: Menlo, Monaco, &amp;quot;Courier New&amp;quot;, monospace, Menlo, Monaco, &amp;quot;Courier New&amp;quot;, monospace; font-size: 11.7px; text-align: left;&quot;&gt;System&lt;/span&gt;&lt;span style=&quot;color: rgb(216, 222, 233); font-family: Menlo, Monaco, &amp;quot;Courier New&amp;quot;, monospace, Menlo, Monaco, &amp;quot;Courier New&amp;quot;, monospace; font-size: 11.7px; text-align: left;&quot;&gt;&amp;nbsp;Events&lt;/span&gt;&lt;span style=&quot;color: rgb(216, 222, 233); font-family: Menlo, Monaco, &amp;quot;Courier New&amp;quot;, monospace, Menlo, Monaco, &amp;quot;Courier New&amp;quot;, monospace; font-size: 11.7px; text-align: left;&quot;&gt;&amp;nbsp;(&lt;/span&gt;&lt;span style=&quot;color: rgb(216, 222, 233); font-family: Menlo, Monaco, &amp;quot;Courier New&amp;quot;, monospace, Menlo, Monaco, &amp;quot;Courier New&amp;quot;, monospace; font-size: 11.7px; text-align: left;&quot;&gt;user-service&lt;/span&gt;&lt;span style=&quot;color: rgb(216, 222, 233); font-family: Menlo, Monaco, &amp;quot;Courier New&amp;quot;, monospace, Menlo, Monaco, &amp;quot;Courier New&amp;quot;, monospace; font-size: 11.7px; text-align: left;&quot;&gt;.events)&lt;/span&gt;" style="edgeLabel;html=1;align=center;verticalAlign=middle;resizable=0;points=[];" vertex="1" connectable="0" parent="8"><mxGeometry x="-0.3333" y="-1" relative="1" as="geometry"><mxPoint y="-6" as="offset"/></mxGeometry></mxCell><mxCell id="userService" value="User Service&#10;(Spring Boot)" style="rounded=1;whiteSpace=wrap;html=1;fillColor=#ffe6cc;strokeColor=#d79b00;fontColor=#000000;" parent="1" vertex="1"><mxGeometry x="470" y="190" width="120" height="60" as="geometry"/></mxCell><mxCell id="keycloak" value="Keycloak&#10;(Auth Server)" style="rounded=1;whiteSpace=wrap;html=1;fillColor=#f8cecc;strokeColor=#b85450;fontColor=#000000;" parent="1" vertex="1"><mxGeometry x="470" y="310" width="120" height="60" as="geometry"/></mxCell><mxCell id="postgres" value="PostgreSQL&#10;(Database)" style="shape=cylinder3;whiteSpace=wrap;html=1;boundedLbl=1;backgroundOutline=1;size=15;fillColor=#f5f5f5;strokeColor=#666666;fontColor=#333333;" parent="1" vertex="1"><mxGeometry x="470" y="430" width="120" height="80" as="geometry"/></mxCell><mxCell id="conn1" value="" style="endArrow=classic;html=1;exitX=1;exitY=0.5;exitDx=0;exitDy=0;entryX=0;entryY=0.5;entryDx=0;entryDy=0;" parent="1" source="client" target="gateway" edge="1"><mxGeometry width="50" height="50" relative="1" as="geometry"/></mxCell><mxCell id="conn2" value="" style="endArrow=classic;html=1;exitX=1;exitY=0.5;exitDx=0;exitDy=0;entryX=0;entryY=0.5;entryDx=0;entryDy=0;" parent="1" source="gateway" target="userService" edge="1"><mxGeometry width="50" height="50" relative="1" as="geometry"/></mxCell><mxCell id="conn3" value="" style="endArrow=classic;html=1;exitX=0.5;exitY=1;exitDx=0;exitDy=0;entryX=0.5;entryY=0;entryDx=0;entryDy=0;" parent="1" source="userService" target="keycloak" edge="1"><mxGeometry width="50" height="50" relative="1" as="geometry"/></mxCell><mxCell id="conn4" value="" style="endArrow=classic;html=1;exitX=0.5;exitY=1;exitDx=0;exitDy=0;entryX=0.5;entryY=0;entryDx=0;entryDy=0;" parent="1" source="keycloak" edge="1"><mxGeometry width="50" height="50" relative="1" as="geometry"><mxPoint x="530" y="430" as="targetPoint"/></mxGeometry></mxCell><mxCell id="label1" value="HTTP/HTTPS" style="text;html=1;strokeColor=none;fillColor=none;align=center;verticalAlign=middle;whiteSpace=wrap;rounded=0;fontSize=10;" parent="1" vertex="1"><mxGeometry x="200" y="198" width="60" height="20" as="geometry"/></mxCell><mxCell id="label2" value="JWT" style="text;html=1;strokeColor=none;fillColor=none;align=center;verticalAlign=middle;whiteSpace=wrap;rounded=0;fontSize=10;" parent="1" vertex="1"><mxGeometry x="400" y="198" width="60" height="20" as="geometry"/></mxCell><mxCell id="label3" value="Auth" style="text;html=1;strokeColor=none;fillColor=none;align=center;verticalAlign=middle;whiteSpace=wrap;rounded=0;" parent="1" vertex="1"><mxGeometry x="528" y="268" width="60" height="20" as="geometry"/></mxCell><mxCell id="label4" value="DB" style="text;html=1;strokeColor=none;fillColor=none;align=center;verticalAlign=middle;whiteSpace=wrap;rounded=0;" parent="1" vertex="1"><mxGeometry x="528" y="390" width="60" height="20" as="geometry"/></mxCell><mxCell id="2" value="Redis" style="shape=cylinder3;whiteSpace=wrap;html=1;boundedLbl=1;backgroundOutline=1;size=15;fillColor=#f5f5f5;strokeColor=#666666;fontColor=#333333;" parent="1" vertex="1"><mxGeometry x="670" y="190" width="90" height="60" as="geometry"/></mxCell><mxCell id="4" value="DB" style="text;html=1;strokeColor=none;fillColor=none;align=center;verticalAlign=middle;whiteSpace=wrap;rounded=0;fontSize=10;" parent="1" vertex="1"><mxGeometry x="600" y="198" width="60" height="20" as="geometry"/></mxCell><mxCell id="5" value="Kafka" style="rounded=1;whiteSpace=wrap;html=1;fillColor=#FFFFFF;strokeColor=#d79b00;fontColor=#000000;" vertex="1" parent="1"><mxGeometry x="485" y="90" width="90" height="40" as="geometry"/></mxCell></root></mxGraphModel></diagram></mxfile>